<svg xmlns="http://www.w3.org/2000/svg" viewBox="0 0 64 64" fill="none">
  <defs>
    <linearGradient id="bg" x1="10" y1="8" x2="54" y2="56" gradientUnits="userSpaceOnUse">
      <stop offset="0" stop-color="#123b63" />
      <stop offset="1" stop-color="#0b2742" />
    </linearGradient>
    <linearGradient id="frame" x1="16" y1="14" x2="48" y2="50" gradientUnits="userSpaceOnUse">
      <stop offset="0" stop-color="#f4d27a" />
      <stop offset="1" stop-color="#c79b38" />
    </linearGradient>
    <linearGradient id="tooth" x1="22" y1="16" x2="42" y2="50" gradientUnits="userSpaceOnUse">
      <stop offset="0" stop-color="#ffffff" />
      <stop offset="1" stop-color="#eef6fb" />
    </linearGradient>
    <linearGradient id="accent" x1="26" y1="26" x2="40" y2="40" gradientUnits="userSpaceOnUse">
      <stop offset="0" stop-color="#67c2ea" />
      <stop offset="1" stop-color="#2fa3da" />
    </linearGradient>
  </defs>
  <rect x="4" y="4" width="56" height="56" rx="18" fill="url(#bg)" />
  <rect x="8" y="8" width="48" height="48" rx="15" stroke="url(#frame)" stroke-width="1.6" opacity="0.95" />
  <circle cx="48.5" cy="17.5" r="2.9" fill="#f4d27a" opacity="0.95" />
  <circle cx="44.6" cy="14.6" r="1.25" fill="#ffffff" opacity="0.9" />
  <path d="M32 16c-7.8 0-14 6.1-14 13.7 0 4.4 1.9 8 3.8 10.9 1.5 2.3 2.1 4.7 2.1 7.7 0 2.9 1.4 6.2 4.1 6.2 2.4 0 3.2-2.7 4-5.1.4-1.2.8-2.1 2.2-2.1s1.8.9 2.2 2.1c.8 2.4 1.6 5.1 4 5.1 2.7 0 4.1-3.3 4.1-6.2 0-3 .6-5.4 2.1-7.7 1.9-2.9 3.8-6.5 3.8-10.9C46 22.1 39.8 16 32 16Z" fill="url(#tooth)" stroke="#d7b05c" stroke-width="1.5" stroke-linejoin="round" />
  <path d="M26.6 26.2c1.3-1 3.1-1.5 5.4-1.5s4.1.5 5.4 1.5" stroke="url(#accent)" stroke-width="1.7" stroke-linecap="round" opacity="0.95" />
  <path d="M29.7 31.8c.7-.4 1.6-.6 2.3-.6.8 0 1.6.2 2.3.6" stroke="#d7b05c" stroke-width="1.25" stroke-linecap="round" opacity="0.85" />
</svg>
